<svg xmlns="http://www.w3.org/2000/svg" viewBox="0 0 512 512" fill="none" role="img" aria-label="Kiosk POS">
  <defs>
    <linearGradient id="bg" x1="96" y1="32" x2="448" y2="480" gradientUnits="userSpaceOnUse">
      <stop stop-color="#45D078"/>
      <stop offset="0.52" stop-color="#28A745"/>
      <stop offset="1" stop-color="#186B30"/>
    </linearGradient>
    <linearGradient id="shine" x1="256" y1="0" x2="256" y2="256" gradientUnits="userSpaceOnUse">
      <stop stop-color="#FFFFFF" stop-opacity="0.44"/>
      <stop offset="1" stop-color="#FFFFFF" stop-opacity="0"/>
    </linearGradient>
    <linearGradient id="deep" x1="256" y1="224" x2="256" y2="512" gradientUnits="userSpaceOnUse">
      <stop stop-color="#000000" stop-opacity="0"/>
      <stop offset="1" stop-color="#000000" stop-opacity="0.2"/>
    </linearGradient>
    <filter id="glow" x="-40%" y="-40%" width="180%" height="180%">
      <feGaussianBlur stdDeviation="8" result="b"/>
      <feMerge><feMergeNode in="b"/><feMergeNode in="SourceGraphic"/></feMerge>
    </filter>
  </defs>
  <rect width="512" height="512" rx="144" fill="url(#bg)"/>
  <rect width="512" height="512" rx="144" fill="url(#deep)"/>
  <rect width="512" height="240" rx="144" fill="url(#shine)"/>
  <path d="M48 195C157 130 195 120 256 120C317 120 355 130 464 195V226H48V195Z" fill="#FFFFFF" fill-opacity="0.98"/>
  <rect x="88" y="237" width="336" height="205" rx="42" fill="#FFFFFF" fill-opacity="0.96"/>
  <rect x="125" y="272" width="19" height="67" rx="10" fill="#1A7A34" fill-opacity="0.55"/>
  <rect x="150" y="272" width="19" height="99" rx="10" fill="#1A7A34" fill-opacity="0.72"/>
  <rect x="176" y="272" width="19" height="54" rx="10" fill="#1A7A34" fill-opacity="0.42"/>
  <rect x="202" y="272" width="19" height="86" rx="10" fill="#1A7A34" fill-opacity="0.62"/>
  <circle cx="352" cy="394" r="40" fill="#32B85A" filter="url(#glow)"/>
  <circle cx="352" cy="394" r="25" fill="#FFFFFF" fill-opacity="0.96"/>
  <path d="M337 393L348 404L374 378" stroke="#1A7A34" stroke-width="14" stroke-linecap="round" stroke-linejoin="round"/>
</svg>
