<svg xmlns="http://www.w3.org/2000/svg" viewBox="0 0 32 32" fill="none" role="img" aria-label="Kiosk shop counter">
  <defs>
    <linearGradient id="bg" x1="8" y1="2" x2="26" y2="30" gradientUnits="userSpaceOnUse">
      <stop stop-color="#45D078"/>
      <stop offset="0.5" stop-color="#28A745"/>
      <stop offset="1" stop-color="#186B30"/>
    </linearGradient>
    <linearGradient id="shine" x1="16" y1="0" x2="16" y2="18" gradientUnits="userSpaceOnUse">
      <stop stop-color="#FFFFFF" stop-opacity="0.42"/>
      <stop offset="1" stop-color="#FFFFFF" stop-opacity="0"/>
    </linearGradient>
    <filter id="glow" x="-40%" y="-40%" width="180%" height="180%">
      <feGaussianBlur stdDeviation="1.1" result="b"/>
      <feMerge><feMergeNode in="b"/><feMergeNode in="SourceGraphic"/></feMerge>
    </filter>
  </defs>
  <rect width="32" height="32" rx="9" fill="url(#bg)"/>
  <rect width="32" height="14" rx="9" fill="url(#shine)"/>
  <path d="M3 12.2C9.8 8.1 12.2 7.5 16 7.5C19.8 7.5 22.2 8.1 29 12.2V14.1H3V12.2Z" fill="#FFFFFF" fill-opacity="0.98"/>
  <rect x="5.5" y="14.8" width="21" height="12.8" rx="2.6" fill="#FFFFFF" fill-opacity="0.96"/>
  <rect x="7.8" y="17" width="1.2" height="4.2" rx="0.6" fill="#1A7A34" fill-opacity="0.55"/>
  <rect x="9.4" y="17" width="1.2" height="6.2" rx="0.6" fill="#1A7A34" fill-opacity="0.72"/>
  <rect x="11" y="17" width="1.2" height="3.4" rx="0.6" fill="#1A7A34" fill-opacity="0.42"/>
  <rect x="12.6" y="17" width="1.2" height="5.4" rx="0.6" fill="#1A7A34" fill-opacity="0.62"/>
  <path d="M16.2 17.4H23.4M16.2 19.6H22.2M16.2 21.8H23" stroke="#1A7A34" stroke-opacity="0.45" stroke-width="1.05" stroke-linecap="round"/>
  <circle cx="22" cy="24.6" r="2.5" fill="#32B85A" filter="url(#glow)"/>
  <circle cx="22" cy="24.6" r="1.5" fill="#FFFFFF" fill-opacity="0.95"/>
  <path d="M21.1 24.55L21.75 25.2L23.15 23.65" stroke="#1A7A34" stroke-width="0.95" stroke-linecap="round" stroke-linejoin="round"/>
  <path d="M14.8 15.8V17.4M14.8 15.8H16.4" stroke="#45D078" stroke-width="1.05" stroke-linecap="round"/>
</svg>
